<svg xmlns="http://www.w3.org/2000/svg" width="181" height="33" fill="none" viewBox="0 0 181 33"><mask id="mask0_6722_7342" width="181" height="33" x="0" y="0" maskUnits="userSpaceOnUse" style="mask-type:luminance"><path fill="#fff" d="M180.948.769h-180v32h180z"/></mask><g fill="#bcbcc0" mask="url(#mask0_6722_7342)"><path d="M18.516 20.784H7.678v-4.649h10.838c1.876 0 2.904.936 2.904 2.325s-1.028 2.324-2.904 2.324M7.678 6.535h10.198c1.906 0 2.978.755 2.978 2.174 0 1.434-1.057 2.174-2.978 2.174H7.678zm16.258 6.672c1.563-.755 3.469-2.536 3.469-5.359 0-4.528-3.187-6.988-8.814-7.003H1.022V26.49h18.164c5.673 0 8.918-2.717 8.918-7.245.015-3.034-1.905-5.102-4.168-6.038m56.04 7.94c-2.055 0-3.008-.71-3.008-2.43v-5.57h7.37v-5.51h-7.37V2.641h-6.625v4.996H61.84V2.641h-6.625v4.996h-3.9v5.51h3.9v7.456c0 4.317 3.186 6.25 7.608 6.25 3.186 0 5.554-.574 7.295-1.253l-1.235-5.223c-1.236.468-2.65.755-4.035.755-2.055 0-3.008-.71-3.008-2.43v-5.555h8.516v7.456c0 4.317 3.187 6.25 7.609 6.25 3.186 0 5.553-.574 7.295-1.253l-1.236-5.208c-1.25.468-2.665.755-4.05.755m34.84-10.355v-3.14h-6.73v18.853h6.73v-7.14c0-4 2.725-5.403 6.447-5.388 1.027 0 1.488.075 2.337.211v-6.49a15 15 0 0 0-2.054-.136c-3.053-.015-5.107.95-6.73 3.23m29.717 3.608c0 4.105-2.129 6.43-6.55 6.43-4.422 0-6.551-2.325-6.551-6.43V.86h-6.938v14.219c0 7.366 4.779 11.819 13.489 11.819 8.709 0 13.488-4.468 13.488-11.82V.86h-6.938zm19.37 7.154c-2.769 0-4.958-1.796-4.958-4.362v-.212c0-2.566 2.204-4.362 4.958-4.362 2.725 0 4.988 1.57 4.988 4.453 0 2.898-2.263 4.483-4.988 4.483m1.623-14.325c-2.933 0-5.241 1.072-6.417 2.4V7.668h-6.73v25.027h6.73v-8.136c1.176 1.328 3.469 2.4 6.402 2.4 6.342 0 9.99-4.423 9.99-9.857.015-5.434-3.633-9.872-9.975-9.872M44.794 19.35l6.164 1.827c-1.474 3.637-5.851 5.75-10.645 5.75-6.864 0-11.598-4.03-11.598-9.886 0-5.645 4.794-9.827 11.523-9.827 7.117 0 10.988 4.529 10.988 9.857v1.645H35.355c.64 1.932 2.427 3.004 4.928 3.004 2.01-.015 3.767-.83 4.511-2.37m-9.335-4.362h8.948c-.208-1.283-1.727-2.717-4.303-2.717-2.084.015-3.87.906-4.645 2.717"/><path d="m100.715 19.35 6.163 1.827c-1.474 3.637-5.851 5.75-10.645 5.75-6.863 0-11.598-4.03-11.598-9.886 0-5.645 4.794-9.827 11.524-9.827 7.116 0 10.987 4.529 10.987 9.857v1.645h-15.87c.64 1.932 2.426 3.004 4.928 3.004 2.01-.015 3.766-.83 4.511-2.37m-9.335-4.362h8.948c-.209-1.283-1.728-2.717-4.303-2.717-2.07.015-3.871.906-4.645 2.717m89.565-11.475c0 1.538-1.173 2.655-2.619 2.655-1.445 0-2.618-1.117-2.618-2.655s1.173-2.655 2.618-2.655c1.446 0 2.619 1.117 2.619 2.655m-.403 0c0-1.31-.984-2.283-2.216-2.283s-2.217.973-2.217 2.283c0 1.297.985 2.283 2.217 2.283s2.216-.986 2.216-2.283m-.913 1.297h-.829l-.533-.889h-.356v.89h-.746V2.13h1.279c.652 0 1.056.3 1.056.865 0 .42-.285.625-.547.733zm-.901-1.754c0-.216-.165-.312-.39-.312h-.427v.625h.427c.225 0 .39-.096.39-.313"/></g></svg>