<svg xmlns="http://www.w3.org/2000/svg" width="131" height="50" fill="none" viewBox="0 0 131 50"><path fill="#bcbcc0" stroke="#bcbcc0" stroke-width=".8" d="M92.431 18.705v-1.076h2.982v15.848c0 3.26-.96 5.496-2.436 6.919-1.48 1.426-3.528 2.085-5.796 2.085-3.974 0-6.453-2.504-7.504-4.714l2.738-1.13c.742 1.479 2.323 3.1 4.766 3.1 1.583 0 2.912-.49 3.842-1.482.927-.989 1.408-2.425 1.408-4.225v-1.71h-.736l-.12.15c-.802 1.004-2.41 1.899-4.456 1.899-4.318 0-8.294-3.752-8.294-8.615 0-4.887 3.979-8.677 8.294-8.677 2.044 0 3.656.913 4.46 1.884l.12.145h.732zm27.294 12.15c-1.08 1.434-3.323 3.513-6.997 3.513-4.932 0-8.602-3.79-8.602-8.656 0-5.177 3.714-8.657 8.15-8.657 4.454 0 6.655 3.526 7.394 5.498l.004.009.263.656-11.76 4.849-.4.165.196.386c.488.962 1.124 1.71 1.927 2.214s1.746.75 2.824.75c2.049.04 3.518-.91 4.585-2.332zm-12.432-5.378.017.58.536-.222 8.118-3.36.366-.151-.148-.367c-.529-1.319-2.043-2.177-3.742-2.177-2.222 0-5.258 1.932-5.147 5.697Zm-73.634-2.542-8.806.04v-3.03h12.229q.125.857.125 1.915c0 2.83-.767 6.253-3.212 8.69l-.006.006c-2.385 2.477-5.444 3.812-9.536 3.812-7.557 0-13.905-6.14-13.905-13.656 0-7.515 6.348-13.655 13.905-13.655 3.991 0 6.879 1.488 9.083 3.483l-2.15 2.143c-1.677-1.47-3.927-2.594-6.933-2.594-5.899 0-10.512 4.732-10.512 10.603s4.613 10.603 10.512 10.603c3.809 0 6.001-1.535 7.394-2.923 1.166-1.163 1.914-2.81 2.21-4.983l.062-.456zm23.3 2.797c0 4.975-3.904 8.656-8.706 8.656-4.803 0-8.705-3.661-8.705-8.656 0-5.015 3.901-8.656 8.705-8.656s8.705 3.641 8.705 8.656Zm-3.188 0c0-3.466-2.531-5.89-5.518-5.89s-5.518 2.424-5.518 5.89c0 3.424 2.53 5.891 5.518 5.891s5.518-2.467 5.518-5.89Zm22.836 0c0 4.975-3.903 8.656-8.705 8.656-4.803 0-8.705-3.661-8.705-8.656 0-5.015 3.901-8.656 8.705-8.656s8.705 3.641 8.705 8.656Zm-3.187 0c0-3.466-2.531-5.89-5.518-5.89s-5.518 2.424-5.518 5.89c0 3.424 2.53 5.891 5.518 5.891s5.518-2.467 5.518-5.89Zm19.3.041c0-3.352-2.275-5.911-5.251-5.911-3 0-5.456 2.54-5.456 5.911 0 3.357 2.461 5.85 5.456 5.85 2.971 0 5.25-2.513 5.25-5.85Zm8.941-17.65v25.712h-3.084V8.123z"/></svg>