<svg xmlns="http://www.w3.org/2000/svg" width="154" height="46" fill="none" viewBox="0 0 154 46"><path fill="#bcbcc0" stroke="#bcbcc0" d="M18.286 32.287H32.56v3.803H13.166V9.876H32.56v3.802H17.786v7.083h13.81v3.803h-13.81v7.723zm22.803-4.362h-.5v8.165h-4.62V9.716h10.259c3.373 0 6.141.86 8.056 2.41 1.901 1.539 3.006 3.793 3.006 6.694 0 2.985-1.107 5.237-3.004 6.753-1.912 1.53-4.68 2.352-8.058 2.352zm-.34-4.302v.5h5.64c1.832 0 3.439-.414 4.6-1.304 1.178-.904 1.841-2.258 1.841-3.999 0-1.67-.67-2.982-1.847-3.862-1.158-.866-2.761-1.28-4.595-1.28H40.75zm87.074-3.362V10.036h4.62V36.25h-4.996l-7.081-11.922-.002-.002c-.947-1.574-2.863-5.552-3.504-6.99l-.957.204a117 117 0 0 0 .08 3.717c.041 1.34.081 2.774.081 4.287V36.09h-4.621V9.876h4.997l7.071 11.906c.241.479.588 1.157.975 1.913.931 1.82 2.092 4.089 2.54 5.094l.957-.204c0-1.137-.036-2.38-.073-3.686l-.007-.25c-.041-1.4-.08-2.875-.08-4.388Zm-68.57 7.864h4.639c.129 1.742.933 3.013 2.12 3.85 1.276.9 2.955 1.273 4.625 1.273 1.08 0 2.561-.164 3.793-.703 1.24-.542 2.327-1.52 2.327-3.16 0-.89-.311-1.61-.852-2.19-.527-.567-1.255-.98-2.068-1.314-1.127-.46-2.531-.805-3.971-1.158-.61-.15-1.226-.3-1.83-.462l-.004-.002c-2.165-.56-4.164-1.22-5.623-2.334-1.424-1.088-2.353-2.623-2.353-5.026 0-2.62 1.23-4.556 3.062-5.855 1.846-1.31 4.309-1.969 6.716-1.969 2.827 0 5.486.628 7.423 1.972 1.804 1.252 3.012 3.143 3.145 5.833h-4.648c-.187-1.564-.913-2.618-1.988-3.27-1.142-.691-2.618-.892-4.093-.892-1.02 0-2.2.21-3.145.77-.97.575-1.69 1.526-1.69 2.931 0 .578.1 1.102.422 1.566.317.456.805.793 1.455 1.09 1.212.554 3.208 1.063 6.332 1.86l.517.13.012.004.144.033c1.087.248 2.991.684 4.658 1.742 1.716 1.09 3.16 2.827 3.16 5.741 0 2.42-.942 4.474-2.763 5.934-1.833 1.468-4.6 2.37-8.299 2.37-2.977 0-5.835-.742-7.914-2.264-1.953-1.429-3.246-3.56-3.31-6.5Zm27.48-15.143c2.086-2.441 5.154-3.907 9.115-3.907s7.029 1.466 9.114 3.907c2.094 2.45 3.233 5.928 3.233 10 0 4.073-1.139 7.55-3.233 10.001-2.085 2.441-5.153 3.907-9.114 3.907-3.96 0-7.029-1.466-9.114-3.907-2.093-2.45-3.233-5.927-3.233-10s1.14-7.55 3.233-10.001Zm1.389 10c0 2.463.534 4.969 1.766 6.875 1.248 1.93 3.205 3.23 5.96 3.23 2.831 0 4.792-1.297 6.023-3.233 1.213-1.91 1.703-4.415 1.703-6.871 0-2.463-.533-4.968-1.766-6.875-1.247-1.93-3.205-3.23-5.96-3.23-2.83 0-4.792 1.297-6.022 3.233-1.213 1.91-1.704 4.415-1.704 6.872Z"/></svg>