<svg xmlns="http://www.w3.org/2000/svg" width="199" height="37" fill="none" viewBox="0 0 199 37"><g clip-path="url(#clip0_6722_7293)"><mask id="mask0_6722_7293" width="8" height="9" x="0" y="13" maskUnits="userSpaceOnUse" style="mask-type:luminance"><path fill="#fff" d="M4.144 20.467c-.82.85-2.15.85-2.97 0l-.211-.219c-.82-.85-.82-2.23 0-3.081L4.1 13.912a2.047 2.047 0 0 1 2.97 0l.211.218c.82.851.82 2.23 0 3.082z"/></mask><g mask="url(#mask0_6722_7293)"><path fill="#bcbcc0" d="M.252 13.174h7.742v8.03H.252z"/></g><mask id="mask1_6722_7293" width="9" height="9" x="11" y="1" maskUnits="userSpaceOnUse" style="mask-type:luminance"><path fill="#fff" d="M12.416 5.932a2.237 2.237 0 0 1 0-3.081l.21-.219a2.05 2.05 0 0 1 2.972 0l3.138 3.256c.82.85.82 2.23 0 3.08l-.21.22a2.05 2.05 0 0 1-2.971 0z"/></mask><g mask="url(#mask1_6722_7293)"><path fill="#bcbcc0" d="M11.705 1.895h7.741v8.03h-7.74z"/></g><mask id="mask2_6722_7293" width="9" height="6" x="3" y="6" maskUnits="userSpaceOnUse" style="mask-type:luminance"><path fill="#fff" d="M5.284 11.52c-1.16 0-2.1-.975-2.1-2.178v-.31c0-1.202.94-2.178 2.1-2.178h4.438c1.16 0 2.101.976 2.101 2.179v.309c0 1.203-.94 2.179-2.1 2.179z"/></mask><g mask="url(#mask2_6722_7293)"><path fill="#bcbcc0" d="M3.088 6.755h8.83v4.865h-8.83z"/></g><mask id="mask3_6722_7293" width="5" height="10" x="5" y="20" maskUnits="userSpaceOnUse" style="mask-type:luminance"><path fill="#fff" d="M9.663 27.53c0 1.204-.94 2.179-2.1 2.179h-.299c-1.16 0-2.1-.976-2.1-2.179v-4.603c0-1.204.94-2.18 2.1-2.18h.299c1.16 0 2.1.976 2.1 2.18z"/></mask><g mask="url(#mask3_6722_7293)"><path fill="#bcbcc0" d="M5.068 20.648h4.69v9.16h-4.69z"/></g><mask id="mask4_6722_7293" width="9" height="9" x="11" y="24" maskUnits="userSpaceOnUse" style="mask-type:luminance"><path fill="#fff" d="M18.608 28.573c.82.851.82 2.23 0 3.081l-.21.22a2.05 2.05 0 0 1-2.972 0l-3.138-3.256c-.82-.85-.82-2.23 0-3.081l.21-.22a2.05 2.05 0 0 1 2.972.001z"/></mask><g mask="url(#mask4_6722_7293)"><path fill="#bcbcc0" d="M11.577 24.58h7.742v8.03h-7.742z"/></g><mask id="mask5_6722_7293" width="9" height="6" x="19" y="22" maskUnits="userSpaceOnUse" style="mask-type:luminance"><path fill="#fff" d="M25.74 22.984c1.16 0 2.1.976 2.1 2.18v.308c0 1.204-.94 2.179-2.1 2.179H21.3c-1.16 0-2.1-.976-2.1-2.179v-.309c0-1.203.94-2.179 2.1-2.179z"/></mask><g mask="url(#mask5_6722_7293)"><path fill="#bcbcc0" d="M19.105 22.885h8.83v4.865h-8.83z"/></g><mask id="mask6_6722_7293" width="8" height="9" x="23" y="13" maskUnits="userSpaceOnUse" style="mask-type:luminance"><path fill="#fff" d="M26.879 14.039a2.047 2.047 0 0 1 2.97 0l.21.218c.821.851.821 2.23 0 3.082l-3.137 3.255c-.82.85-2.15.85-2.971 0l-.21-.219a2.235 2.235 0 0 1 0-3.081z"/></mask><g mask="url(#mask6_6722_7293)"><path fill="#bcbcc0" d="M23.03 13.3h7.74v8.03h-7.74z"/></g><mask id="mask7_6722_7293" width="5" height="10" x="21" y="4" maskUnits="userSpaceOnUse" style="mask-type:luminance"><path fill="#fff" d="M21.36 6.975c0-1.203.94-2.179 2.1-2.179h.299c1.16 0 2.1.976 2.1 2.18v4.603c0 1.203-.94 2.179-2.1 2.179h-.298c-1.16 0-2.1-.976-2.1-2.18z"/></mask><g mask="url(#mask7_6722_7293)"><path fill="#bcbcc0" d="M21.265 4.697h4.69v9.16h-4.69z"/></g><path fill="#bcbcc0" d="M38.712 28.97h3.56l.012-2.345h.063q.816 1.431 2.198 2.081t2.984.65q1.727 0 3.108-.634a7 7 0 0 0 2.356-1.74 7.5 7.5 0 0 0 1.475-2.604q.503-1.497.503-3.222t-.534-3.221a8.1 8.1 0 0 0-1.49-2.603 6.9 6.9 0 0 0-2.308-1.741q-1.35-.635-2.95-.635-1.068 0-1.884.228a6.4 6.4 0 0 0-1.444.585 5.8 5.8 0 0 0-1.068.765 5.5 5.5 0 0 0-.722.796h-.1V4.363h-3.759zm12.2-6.055a4.4 4.4 0 0 1-2.279 2.54q-.817.39-1.854.39t-1.855-.391a4.38 4.38 0 0 1-2.279-2.54 5.2 5.2 0 0 1-.298-1.758q0-.91.298-1.757a4.4 4.4 0 0 1 2.279-2.54q.817-.39 1.855-.39 1.037 0 1.855.39a4.4 4.4 0 0 1 2.278 2.54q.3.846.3 1.757 0 .912-.3 1.759m5.672 6.054h3.76v-8.358q0-.325.141-.976a3.9 3.9 0 0 1 .565-1.301q.423-.65 1.223-1.154.8-.505 2.118-.505.439 0 .894.08.455.078.926.204v-3.77a9 9 0 0 0-.675-.166 3.4 3.4 0 0 0-.674-.067q-1.506 0-2.667.751-1.161.75-1.788 2.12h-.063v-2.483h-3.76zm11.258 0h3.76V13.344h-3.76zm.151-19.293q.675.698 1.71.698t1.74-.666q.706-.664.706-1.672 0-1.005-.706-1.672-.705-.665-1.74-.665t-1.71.698a2.28 2.28 0 0 0-.674 1.64q0 .94.674 1.639m18.438 3.668-.011 2.344h-.063q-.817-1.43-2.199-2.081a6.9 6.9 0 0 0-2.983-.65q-1.758 0-3.125.635a7 7 0 0 0-2.34 1.742 7.5 7.5 0 0 0-1.475 2.606 10 10 0 0 0-.502 3.224q0 1.661.533 3.127a7.5 7.5 0 0 0 1.522 2.54 7.4 7.4 0 0 0 2.368 1.71q1.381.636 3.076.636 1.41 0 2.76-.57 1.35-.569 2.165-1.707h.075v1.135q0 1.168-.235 2.125-.236.956-.784 1.638-.55.68-1.475 1.07-.926.39-2.274.39-1.601 0-2.824-.586-1.224-.586-2.353-1.66l-2.259 3.189q1.6 1.462 3.482 2.016 1.882.553 3.985.553 2.196-.001 3.795-.65 1.6-.653 2.65-1.839 1.05-1.188 1.55-2.896.502-1.708.502-3.823V13.344zm-1.196 4.396q1.197 1.272 1.197 3.326 0 .978-.315 1.826a4.1 4.1 0 0 1-.897 1.45q-.582.605-1.416.963-.835.358-1.873.358-.945 0-1.763-.358a4.4 4.4 0 0 1-2.345-2.413 4.6 4.6 0 0 1-.33-1.76q0-1.045.33-1.908.33-.864.913-1.467a4.15 4.15 0 0 1 1.4-.946 4.7 4.7 0 0 1 1.826-.342q2.078 0 3.273 1.271m11.15-13.376h-3.759v24.605h3.76v-8.53q0-.78.188-1.496t.61-1.27a3.06 3.06 0 0 1 1.065-.879q.642-.325 1.581-.325.97 0 1.535.472.564.472.83 1.172.266.699.328 1.497.063.798.063 1.449v7.91h3.76v-9.862q0-1.204-.282-2.31a5.25 5.25 0 0 0-.94-1.953 4.85 4.85 0 0 0-1.707-1.367q-1.05-.52-2.553-.52-1.754 0-2.866.796-1.112.797-1.55 1.773h-.062zm14.05 12.311v7.154q0 1.365.203 2.406t.752 1.74q.549.7 1.504 1.04.956.341 2.461.341.658 0 1.521-.113.863-.114 1.459-.407V25.55q-.345.254-.941.365t-1.098.11q-1.255 0-1.679-.68-.423-.682-.423-1.851v-6.817h4.141v-3.332h-4.141V8.82h-3.76v4.524h-3.105v3.332zm14.176 12.294h3.89l3.169-10.677h.062l3.577 10.677h3.733l5.114-15.625h-3.796l-3.137 10.938h-.063l-3.263-10.938h-4.079l-3.043 10.938h-.062l-3.264-10.938h-4.078zm24.395-24.605h-3.76v24.605h3.76v-8.53q0-.78.188-1.496.187-.716.61-1.27a3.1 3.1 0 0 1 1.065-.879q.642-.325 1.581-.325.97 0 1.535.472.563.472.829 1.172.267.699.329 1.497.063.798.063 1.449v7.91h3.759v-9.862q0-1.204-.282-2.31a5.3 5.3 0 0 0-.939-1.953 4.86 4.86 0 0 0-1.707-1.367q-1.05-.52-2.553-.52-1.755 0-2.866.796-1.112.797-1.551 1.773h-.061zm26.996 18.148V21.44q0-2.047-.518-3.624-.52-1.576-1.445-2.65a6.2 6.2 0 0 0-2.23-1.641q-1.304-.57-2.873-.569a8.8 8.8 0 0 0-3.204.586 7.6 7.6 0 0 0-2.606 1.66 7.9 7.9 0 0 0-1.743 2.587q-.645 1.513-.644 3.367 0 1.855.642 3.368a7.9 7.9 0 0 0 1.739 2.587 7.6 7.6 0 0 0 2.602 1.66 8.8 8.8 0 0 0 3.2.585 8.4 8.4 0 0 0 3.42-.716q1.63-.716 2.949-2.409l-2.698-2.115a6.6 6.6 0 0 1-1.679 1.514q-.957.6-2.368.601-1.6 0-2.729-.978-1.13-.98-1.318-2.74zm-11.504-2.918q.22-1.695 1.212-2.708.991-1.011 2.692-1.011 1.794 0 2.801.995t1.039 2.724zm28.267 2.918V21.44q0-2.047-.518-3.624-.52-1.576-1.445-2.65a6.2 6.2 0 0 0-2.23-1.641q-1.303-.57-2.874-.569a8.8 8.8 0 0 0-3.203.586 7.6 7.6 0 0 0-2.607 1.66 7.9 7.9 0 0 0-1.742 2.587q-.645 1.513-.645 3.367t.643 3.368a7.9 7.9 0 0 0 1.738 2.587 7.6 7.6 0 0 0 2.603 1.66q1.505.585 3.2.585a8.4 8.4 0 0 0 3.42-.716q1.63-.716 2.949-2.409l-2.698-2.115a6.6 6.6 0 0 1-1.679 1.514q-.958.6-2.368.601-1.6 0-2.73-.978-1.13-.98-1.317-2.74zm-11.503-2.918q.22-1.695 1.211-2.708.991-1.011 2.692-1.011 1.794 0 2.801.995t1.039 2.724zm13.326 9.375h3.76V4.367h-3.76z"/></g><defs><clipPath id="clip0_6722_7293"><path fill="#fff" d="M.348.769h198v36h-198z"/></clipPath></defs></svg>